<?xml version="1.0" encoding="UTF-8" standalone="no"?>
<svg
   width="24"
   height="24"
   viewBox="0 0 24 24"
   fill="#fff"
   stroke="currentColor"
   stroke-width="2"
   stroke-linecap="round"
   stroke-linejoin="round"
   version="1.1"
   id="svg4"
   sodipodi:docname="freestyle.svg"
   inkscape:version="1.4 (86a8ad7, 2024-10-11)"
   xmlns:inkscape="http://www.inkscape.org/namespaces/inkscape"
   xmlns:sodipodi="http://sodipodi.sourceforge.net/DTD/sodipodi-0.dtd"
   xmlns="http://www.w3.org/2000/svg"
   xmlns:svg="http://www.w3.org/2000/svg">
  <defs
     id="defs4" />
  <sodipodi:namedview
     id="namedview4"
     pagecolor="#505050"
     bordercolor="#ffffff"
     borderopacity="1"
     inkscape:showpageshadow="0"
     inkscape:pageopacity="0"
     inkscape:pagecheckerboard="1"
     inkscape:deskcolor="#505050"
     inkscape:zoom="33.381332"
     inkscape:cx="4.927904"
     inkscape:cy="13.735222"
     inkscape:window-width="3440"
     inkscape:window-height="1351"
     inkscape:window-x="2151"
     inkscape:window-y="1338"
     inkscape:window-maximized="1"
     inkscape:current-layer="svg4" />
  <path
     d="M20 10c0 4.993-5.539 10.193-7.399 11.799a1 1 0 0 1-1.202 0C9.539 20.193 4 14.993 4 10a8 8 0 0 1 16 0"
     id="path1" />
  <path
     style="display:inline;fill:#000000;stroke:currentColor;stroke-width:0.101888;stroke-linecap:round;stroke-linejoin:round"
     d="m 11.845795,20.030762 c -0.638009,-0.534554 -2.3378038,-2.337083 -2.2645892,-2.40146 0.063575,-0.05589 0.5181372,-0.137964 0.8377862,-0.15125 0.402801,-0.01674 0.293221,-0.05428 1.090914,0.373664 0.568299,0.304875 1.0333,0.354747 1.449125,0.155417 l 0.195388,-0.09366 -0.283104,-0.02387 c -0.498649,-0.04205 -0.694034,-0.118434 -1.256344,-0.491153 -0.767389,-0.508653 -1.197919,-0.58735 -2.0100962,-0.367432 -0.1791046,0.04849 -0.3567752,0.09503 -0.3948216,0.103403 -0.076391,0.01681 -0.5429891,-0.5366 -0.9539743,-1.131475 l -0.2090354,-0.302565 0.4044228,0.02276 c 0.5324701,0.02997 0.9129829,0.08824 1.7395727,0.266372 0.935242,0.201549 1.043724,0.230598 1.336462,0.357856 0.311819,0.135552 0.306337,0.141518 0.112516,-0.122432 -0.303881,-0.413833 -0.912879,-0.771541 -1.463435,-0.859579 -0.175658,-0.02809 -0.167026,-0.04925 0.05516,-0.135226 0.581114,-0.224861 1.105078,-0.185321 1.790501,0.135112 0.699172,0.326863 0.961492,0.334207 1.547616,0.04333 0.827125,-0.410474 1.352574,-0.391096 2.378979,0.08774 0.224939,0.104938 0.312216,0.161146 0.294865,0.189899 -0.05089,0.08433 -0.453712,0.636455 -0.643054,0.881392 -0.158584,0.205146 -0.209508,0.250791 -0.263091,0.235808 -0.734922,-0.205519 -1.249993,-0.221019 -1.792367,-0.05393 -0.27833,0.08574 -0.37709,0.100369 -0.679703,0.100687 -0.417403,3.64e-4 -0.420391,0.02141 -0.0305,0.214057 0.305494,0.150946 0.47525,0.169777 0.858845,0.09527 0.465545,-0.09043 1.344557,0.03631 1.266279,0.182574 -0.16237,0.303393 -2.344114,2.591859 -2.723546,2.856771 l -0.103732,0.07242 z M 8.0645265,15.040322 C 7.6456947,14.831609 7.4307594,14.353365 7.6035616,14.014647 7.8763874,13.479863 8.9532492,12.787272 9.771474,12.620341 c 0.2128613,-0.04343 0.298961,-0.08009 0.442443,-0.188427 L 10.392068,12.29741 10.166502,12.059441 C 9.6016781,11.463556 9.225325,10.689029 9.1755646,10.020103 9.1645717,9.8723411 9.1499868,9.751446 9.1431636,9.751446 c -0.00686,0 -0.2848449,0.2308006 -0.6178103,0.512893 C 6.9340071,11.61254 6.496723,11.81923 6.2412051,11.343973 5.9199375,10.746423 8.1633596,7.6585304 10.175168,5.9291871 c 0.990577,-0.8514956 2.473935,-1.8722684 3.087374,-2.124576 0.497279,-0.2045299 0.875975,0.021585 0.806956,0.4818246 -0.04117,0.2745891 -0.625077,1.1286063 -1.489564,2.1786507 -0.571262,0.6938803 -0.490977,0.6234062 -0.661329,0.5805111 -0.38397,-0.096685 -0.69617,0.00525 -1.209264,0.3948328 C 10.058518,7.9345871 9.5794531,8.5602846 9.3785585,9.1785375 9.273867,9.5007248 9.2885215,9.5190763 9.4376115,9.2524868 9.8926024,8.4388862 11.034075,7.3695027 11.547805,7.2755603 c 0.274214,-0.050143 0.716101,0.1562269 1.606622,0.7503254 0.411522,0.2745416 0.916514,0.5790573 1.183199,0.7134807 l 0.206256,0.1039666 0.180869,-0.1402484 c 0.09948,-0.077136 0.198991,-0.1551753 0.22114,-0.1734203 0.02215,-0.018244 0.08863,-0.1493388 0.147738,-0.2913198 0.347481,-0.8346848 1.450931,-1.9041118 1.966403,-1.9057717 0.366832,-0.00118 0.768973,0.4558108 0.727202,0.8263913 -0.06913,0.6133854 -1.316651,1.5464452 -2.29553,1.7169089 -0.167187,0.029115 -0.240632,0.063349 -0.380722,0.177466 l -0.173575,0.141393 0.03444,0.1290393 c 0.06682,0.2503169 -0.09625,0.54923 -0.365973,0.6708573 -0.07212,0.032523 -0.139826,0.086523 -0.150453,0.1200004 -0.04891,0.15409 -0.305069,0.197723 -0.476762,0.08121 l -0.112935,-0.07664 -0.38822,0.310692 c -0.213519,0.170879 -0.701531,0.568055 -1.084466,0.882614 -0.382938,0.314558 -0.727308,0.597244 -0.765268,0.628187 l -0.06902,0.05626 0.08741,7.29e-4 c 0.06169,5.47e-4 0.194992,-0.08499 0.453122,-0.290635 0.393546,-0.313529 0.423451,-0.32171 0.537849,-0.147117 0.0422,0.0644 0.07986,0.08026 0.190573,0.08026 0.527366,0 0.751375,0.847438 0.377086,1.426535 -0.565134,0.874374 -1.923619,0.65377 -2.012535,-0.326813 -0.01453,-0.160227 -0.02584,-0.187518 -0.06966,-0.168051 -0.02877,0.01278 -0.110928,0.02966 -0.18257,0.03749 -0.21756,0.0238 -0.581954,0.323728 -0.665905,0.548107 -0.169627,0.453366 -0.4015987,0.804022 -0.8135351,1.22976 -0.6475365,0.669245 -1.0169093,0.842045 -1.3960521,0.65311 z m 4.4548825,-4.474414 c 0.09851,-0.08232 0.370801,-0.312979 0.605096,-0.51257 L 13.550496,9.6904461 13.516604,9.5443656 C 13.47925,9.3833634 13.180521,9.2097674 12.535691,8.9743417 12.392407,8.9220277 12.188661,8.8408216 12.082921,8.793881 11.977183,8.746939 11.885789,8.713415 11.879822,8.719382 c -0.03542,0.035415 -0.116563,0.6126783 -0.139613,0.9931709 -0.02981,0.4920501 -0.144176,0.8679751 -0.300685,0.9883641 l -0.07616,0.05858 0.149823,7.29e-4 c 0.170217,8.2e-4 0.333639,0.0489 0.452534,0.133142 0.09042,0.06406 0.07252,0.07465 0.553687,-0.32746 z"
     id="path45"
     sodipodi:nodetypes="ssssscssssscssssssssssscscsssscscssscssscsssssssssssscsscsssscsscscsssccsssssssssccsscssssssccsss" />
</svg>
