<?xml version="1.0" encoding="UTF-8" standalone="no"?>
<svg
   width="24"
   height="24"
   viewBox="0 0 24 24"
   fill="#fff"
   stroke="currentColor"
   stroke-width="2"
   stroke-linecap="round"
   stroke-linejoin="round"
   version="1.1"
   id="svg4"
   sodipodi:docname="put-in-take-out.svg"
   xml:space="preserve"
   inkscape:version="1.4 (86a8ad7, 2024-10-11)"
   xmlns:inkscape="http://www.inkscape.org/namespaces/inkscape"
   xmlns:sodipodi="http://sodipodi.sourceforge.net/DTD/sodipodi-0.dtd"
   xmlns="http://www.w3.org/2000/svg"
   xmlns:svg="http://www.w3.org/2000/svg"><defs
     id="defs4" /><sodipodi:namedview
     id="namedview4"
     pagecolor="#505050"
     bordercolor="#ffffff"
     borderopacity="1"
     inkscape:showpageshadow="0"
     inkscape:pageopacity="0"
     inkscape:pagecheckerboard="1"
     inkscape:deskcolor="#505050"
     inkscape:zoom="33.381333"
     inkscape:cx="11.278759"
     inkscape:cy="14.274445"
     inkscape:window-width="3440"
     inkscape:window-height="1351"
     inkscape:window-x="2151"
     inkscape:window-y="1338"
     inkscape:window-maximized="1"
     inkscape:current-layer="svg4" /><g
     style="fill:#ffffff;stroke:currentColor;stroke-width:2;stroke-linecap:round;stroke-linejoin:round"
     id="g4"
     transform="translate(0,0.00113408)"><path
       d="m 20,10 c 0,4.993 -5.539,10.193 -7.399,11.799 a 1,1 0 0 1 -1.202,0 C 9.539,20.193 4,14.993 4,10 a 8,8 0 0 1 16,0"
       id="path1-8" /></g><g
     id="g7"
     transform="matrix(0.69144431,0,0,0.69144431,3.7026683,1.7026683)"><g
       id="g6"
       style="fill:#ffffff;stroke:currentColor;stroke-width:2;stroke-linecap:round;stroke-linejoin:round"
       transform="translate(4,0.5)"><path
         d="m 12,15.5 v -8"
         id="path2-8" /><path
         d="m 12,7.5 3,3"
         id="path3-2" /><path
         d="m 9,10.5 3,-3"
         id="path4-4" /></g><g
       id="g5"
       transform="translate(-4,2)"><path
         d="M 12,14 V 6"
         id="path2" /><path
         d="M 9,10.5 12,14"
         id="path3" /><path
         d="M 15,10.5 12,14"
         id="path4" /></g></g></svg>
